<?xml version="1.0" encoding="utf-8"?>
<!-- Generator: Adobe Illustrator 26.2.1, SVG Export Plug-In . SVG Version: 6.00 Build 0)  -->
<svg version="1.1"
	 id="adidas" xmlns:cc="http://creativecommons.org/ns#" xmlns:dc="http://purl.org/dc/elements/1.1/" xmlns:rdf="http://www.w3.org/1999/02/22-rdf-syntax-ns#"
	 xmlns="http://www.w3.org/2000/svg" xmlns:xlink="http://www.w3.org/1999/xlink" x="0px" y="0px" viewBox="0 0 400 300"
	 style="enable-background:new 0 0 400 300;" xml:space="preserve">
<style type="text/css">
	.st0{fill:#FFFFFF;}
</style>
<path class="st0" d="M354.8,230.8c-9.4-2.3-21.7-1.9-21.7-7.8c0.7-4.2,4.3-5.2,10.1-5.2c8.7,0,9.4,4.9,9.4,7.8h14.5
	c-0.7-11.4-10.1-18.9-24.6-18.9c-15.2,0-23.9,8.1-23.9,18.6c0,5.8,2.9,11.4,8,14c3.6,1.6,8.7,2.9,15.2,3.9c5.8,1,11.6,1.3,12.3,5.9
	c0,2.9-3.6,6.8-10.1,6.8c-9.4-0.3-11.6-5.5-11.6-9.4h-15.2c0.7,11.7,10.2,19.9,26.1,19.9c14.5,0,26.1-5.5,26.1-19.9
	C369.3,238.6,363.5,233.1,354.8,230.8z"/>
<polygon class="st0" points="142.9,187.1 116.1,141.2 66.2,170.2 75.6,187.1 "/>
<rect x="163.9" y="206.6" class="st0" width="14.4" height="58"/>
<path class="st0" d="M76.3,212c-5.1-3.6-10.8-5.2-17.4-5.2c-15.9,0-29.6,13-29.6,29.6c0,16.6,13.7,30,29.6,30c6.5,0,13-1.6,17.4-4.9
	v3.6h14.5v-57.6H76.3V212z M59.7,253.1c-8.7,0-16.6-7.5-16.6-16.6c0-8.8,8-16.6,16.6-16.6c9.4,0,16.6,7.8,16.6,16.6
	C76.3,245.6,69.1,253.1,59.7,253.1z"/>
<polygon class="st0" points="319.4,187.1 232.6,36.7 182.7,66 252.1,187.1 "/>
<path class="st0" d="M142.9,212c-5.1-3.6-10.9-5.2-17.4-5.2c-16.6,0-29.7,13-29.7,29.6c0,16.6,13,30,29.7,30
	c6.5,0,12.3-1.6,17.4-4.9v3.6h14.5v-77.5h-14.5V212z M126.3,253.1c-9.4,0-16.6-7.5-16.6-16.6c0-8.8,7.2-16.6,16.6-16.6
	c8.7,0,16.6,7.8,16.6,16.6C142.9,245.6,134.9,253.1,126.3,253.1z"/>
<polygon class="st0" points="175.5,89.8 124.8,118.4 163.9,187.1 163.9,201.4 178.3,201.4 178.3,187.1 231.2,187.1 "/>
<path class="st0" d="M359.9,201.9c4.3,0,7.2-3.3,7.2-7.2s-2.9-7.2-7.2-7.2c-3.6,0-7.2,3.3-7.2,7.2S356.3,201.9,359.9,201.9z
	 M359.9,188.5c3.6,0,5.8,2.9,5.8,6.2c0,3.3-2.2,6.2-5.8,6.2c-3.6,0-5.8-2.9-5.8-6.2S356.3,188.5,359.9,188.5z"/>
<path class="st0" d="M358.5,195.4h1.4l1.4,3.3h1.4l-1.4-3.3c0.7-0.3,1.4-1,1.4-2.3c0-1.3-1.4-2.3-2.2-2.3h-3.3v7.8h1.1L358.5,195.4
	L358.5,195.4z M358.5,191.8h1.4c1.4,0,1.4,0.6,1.4,1.3c0,1,0,1.3-1.4,1.3h-1.4V191.8z"/>
<path class="st0" d="M297.6,212c-5.1-3.6-10.9-5.2-17.4-5.2c-16.6,0-29.6,13-29.6,29.6c0,16.6,13,30,29.6,30
	c6.5,0,12.3-1.6,17.4-4.9v3.6h13.8v-57.6h-13.8V212L297.6,212z M281,253.1c-9.4,0-16.6-7.5-16.6-16.6c0-8.8,7.2-16.6,16.6-16.6
	c8.7,0,16.6,7.8,16.6,16.6C297.6,245.6,289.7,253.1,281,253.1z"/>
<path class="st0" d="M231.2,212c-4.4-3.6-10.2-5.2-16.6-5.2c-16.6,0-30.4,13-30.4,29.6c0,16.6,13.7,30,30.4,30
	c6.5,0,12.3-1.6,16.6-4.9v3.6h14.5v-77.5h-14.5V212z M214.5,253.1c-8.7,0-16.6-7.5-16.6-16.6c0-8.8,8-16.6,16.6-16.6
	c9.4,0,16.6,7.8,16.6,16.6C231.2,245.6,223.9,253.1,214.5,253.1z"/>
</svg>
