<?xml version="1.0" encoding="utf-8"?>
<!-- Generator: Adobe Illustrator 26.2.1, SVG Export Plug-In . SVG Version: 6.00 Build 0)  -->
<svg version="1.1"
	 id="logosvg.com" xmlns:cc="http://creativecommons.org/ns#" xmlns:dc="http://purl.org/dc/elements/1.1/" xmlns:inkscape="http://www.inkscape.org/namespaces/inkscape" xmlns:rdf="http://www.w3.org/1999/02/22-rdf-syntax-ns#" xmlns:sodipodi="http://sodipodi.sourceforge.net/DTD/sodipodi-0.dtd" xmlns:svg="http://www.w3.org/2000/svg"
	 xmlns="http://www.w3.org/2000/svg" xmlns:xlink="http://www.w3.org/1999/xlink" x="0px" y="0px" viewBox="0 0 400 300"
	 style="enable-background:new 0 0 400 300;" xml:space="preserve">
<style type="text/css">
	.st0{fill:#FFFFFF;}
</style>
<path id="black" class="st0" d="M35.1,49.7c37.6,0,75.2,0,112.8,0c12.8,13.4,25.8,26.7,38.7,40.1c12.8-13.4,25.8-26.7,38.6-40.1
	c37.8,0,75.7,0,113.5,0c0,27.5,0,55,0,82.6c-0.1,1.3,0.3,2.6-0.3,3.8c-9.4,15.1-17.5,31-23.6,47.6c-0.8,1.8-1.5,3.9-3.3,5
	c-1.5,0.6-3.7,0.4-4.5-1.2c-1.1-2-1-4.3-1.3-6.5c-1-8.4-1.9-16.8-3.3-25.2c-0.8-4.3-1.8-8.9-5-12.1c-3-2.9-7.7-3.2-11.6-2.3
	c-3.6,0.8-7,2.9-8.8,6.1c-2.4,4-2.3,8.9-1.5,13.3c1.5,7.8,4.2,15.2,6.9,22.7c5.4,14,10.8,28,16.2,41.9c1.3,3.6,3.5,7.3,7.2,8.9
	c3.2,1.3,6.8,1.3,10.2,0.8c2.9-0.4,5.5-2.4,6.9-4.9c2.7-4.6,3.8-9.8,5.4-14.8c3.2-10.2,6.3-20.5,10.4-30.4c0.1,21.8,0,43.5,0,65.3
	c-23.6,0-47.2,0-70.8,0c-1-8.1-1.7-16.3-1.2-24.4c0.1-7.9,0.4-15.9,0.3-23.8c0.2-11.5-1.3-22.9-1.9-34.4c-0.8-8.9,0.2-17.9-0.6-26.8
	c6.7-4.1,13.7-7.8,20.4-11.8c4.5-2.8,9.4-5.1,13.3-8.8c2.1-2.1,3.8-5.2,2.5-8.1c-2.7-5.4-9.9-8.4-15.7-6c-4.7,2.1-7.5,6.8-11.9,9.5
	c-5.4,3.3-10.8,6.5-16.3,9.6c-4.2-2.2-9.2-2.9-13.7-1.5c-2.5,0.8-4.7,2.4-5.7,4.8c-1.2,2.6-0.2,5.6-0.7,8.3
	c-0.3,1.7-1.7,2.9-3.1,3.7c-6.1,3.6-12.3,7-18.4,10.6c-6.3,3.6-12.4,7.7-19.4,9.8c-4.3,1.2-9.3,2.7-11.4,7c-2,4.2,0.4,9,3.7,11.8
	c2.9,2.7,7.2,3.2,10.9,2c4.8-1.5,8.7-4.8,12.6-7.7c4.9-3.7,10-7.2,15-10.8c2.7-1.8,5.5-3.8,8.7-4.8c2.2-0.8,4.9,0.1,5.8,2.3
	c2.2,4.8,1.5,10.1,1.6,15.2c0.1,16.9-1.4,33.8-2,50.7c0,7.9-0.1,15.9,0.3,23.8c-6.3,0-12.5,0.1-18.8-0.1c0.1-18.7,0-37.4,0-56.2
	c-11.9,9.8-23.7,19.7-35.6,29.5c-11.9-9.8-23.7-19.7-35.6-29.5c0,18.7,0,37.5,0,56.2c-38.6,0-77.3,0-115.9,0
	C35.1,183.5,35.1,116.6,35.1,49.7L35.1,49.7L35.1,49.7z M158.5,49.7c11.5,4.9,22.8,9.9,34.3,14.8c1.7,0.7,2.9,2.3,4.2,3.5
	c-3.4,3.7-7,7.2-10.4,10.9C177.2,69.1,167.8,59.5,158.5,49.7L158.5,49.7z M346.3,49.6c6.3,3.7,12.6,7.4,18.8,11.1
	c0,13.6,0,27.3,0,40.9c-6.7,7.2-12.9,14.8-18.7,22.8C346.3,99.5,346.3,74.5,346.3,49.6L346.3,49.6z M347.7,166
	c5.1-9.4,10.9-18.5,17.3-27.1c0,37.2,0,74.4,0,111.6c-6.3,0-12.5,0-18.8,0c0-26.7,0-53.4,0-80.1C346.1,168.8,347,167.4,347.7,166
	L347.7,166L347.7,166z M158.6,210.5c5.2,4.2,10.3,8.6,15.5,12.8c0.1,9.1,0,18.1,0,27.2c-5.2,0-10.4,0-15.6,0
	C158.6,237.1,158.6,223.8,158.6,210.5L158.6,210.5z M197.8,224.3c5.5-4.6,11-9.2,16.6-13.7c0,3.7,0.1,7.4-0.1,11
	c-1.2,0.9-2.3,1.8-3.4,2.7C206.5,224.3,202.2,224.4,197.8,224.3L197.8,224.3z"/>
</svg>
