<?xml version="1.0" encoding="utf-8"?>
<!-- Generator: Adobe Illustrator 26.2.1, SVG Export Plug-In . SVG Version: 6.00 Build 0)  -->
<svg version="1.1" id="vans" xmlns="http://www.w3.org/2000/svg" xmlns:xlink="http://www.w3.org/1999/xlink" x="0px" y="0px"
	 viewBox="0 0 400 300" style="enable-background:new 0 0 400 300;" xml:space="preserve">
<style type="text/css">
	.st0{fill:#FFFFFF;}
</style>
<polygon id="v" class="st0" points="107.6,91.8 88.3,164.5 68.5,91.8 32.8,91.8 70.4,208.3 106.1,208.3 137.5,112.7 367.6,112.7 
	368.6,91.8 "/>
<path id="s" class="st0" d="M328.1,152.6c-8.8-3.2-9.8-5.5-9.8-7.9c0-2.5,3.7-5.5,9.3-5.5c5.6,0,11.2,3.2,11.2,7.7h22.8
	c0-7.9-7-27-32.5-27c-25.6,0-35.3,16.1-34.4,27c0,9.2,6.5,19.9,35.3,29c8.8,3.2,10.7,6.9,10.7,9.4c0,2.5-5.6,6.2-11.2,6.2
	c-5.6,0-13-4.7-13-9.4h-24.2c0,8.2,6.5,27.8,36.3,27.8c25.6,0,37.2-16.6,36.2-27.5C364.8,165.2,340.2,155.5,328.1,152.6z"/>
<path id="a" class="st0" d="M175.2,122.5h-27l-27.9,85.9h23.7l2.8-11.7h28.8l3.7,11.7h23.4L175.2,122.5z M152.4,178.6l9.3-32.3
	l9.3,32.3H152.4z"/>
<polygon id="n" class="st0" points="259.5,166.2 232.6,122.5 207.5,122.5 207.5,208.4 231.6,208.4 231.6,162.2 260,208.4 
	283.7,208.4 283.7,122.5 259.5,122.5 "/>
</svg>
