<?xml version="1.0" encoding="utf-8"?>
<!-- Generator: Adobe Illustrator 26.2.1, SVG Export Plug-In . SVG Version: 6.00 Build 0)  -->
<svg version="1.1" id="logo" xmlns="http://www.w3.org/2000/svg" xmlns:xlink="http://www.w3.org/1999/xlink" x="0px" y="0px"
	 viewBox="0 0 400 300" style="enable-background:new 0 0 400 300;" xml:space="preserve">
<style type="text/css">
	.st0{fill:#FFFFFF;}
</style>
<g>
	<path class="st0" d="M251.9,130.9l-1.6-0.5l-2.1-0.1c-2.7,0-4.8,1-6.1,3c-1.3,2.1-2,4.9-2,8.6c0,3.6,0.7,6.6,2,8.6
		c1.3,2.1,3.3,3.1,6.1,3.1c2.8,0,4.9-1,6.2-3.1c1.4-2.1,2.1-4.9,2.1-8.6c0-3.7-0.8-6.6-2.1-8.6C253.7,132.1,252.8,131.4,251.9,130.9
		z"/>
	<path class="st0" d="M113.2,142.6l-2.8,0.1c-2.3,0.4-3.4,1.3-3.4,1.3c-1.3,0.9-2,2.3-2,4.2c0,1.2,0.2,2.2,0.7,2.8
		c0.2,0.4,0.3,0.7,1.2,1.3c0,0,2,1.5,6.3,1.3c3.1-0.2,5.8-0.8,5.8-0.8V143l-1.8-0.2L113.2,142.6z"/>
	<path class="st0" d="M168,134.2l-0.5-1.1c-1.3-2.1-3.2-3.2-6-3.2c-2.8,0-4.8,1.2-6.1,3.2c-0.4,0.7-0.8,1.4-1.1,2.3l-0.6,2.7h15.3
		l-0.4-2.7L168,134.2z"/>
	<path class="st0" d="M340.8,134.2l-0.5-1.1c-1.3-2.1-3.2-3.2-6-3.2c-2.8,0-4.8,1.2-6.1,3.2c-0.4,0.7-0.8,1.4-1.1,2.3l-0.6,2.7h15.3
		l-0.4-2.7L340.8,134.2z"/>
	<path class="st0" d="M306.6,54.5c-11.6,0-22.5,2.5-32.5,6.9c-11.4-20.3-32.8-34-57.4-34c-4.6,0-9.1,0.4-13.5,1.4l-6.5,2l-6.1,2.3
		c-8,3.5-15.2,8.5-21.1,14.8c-13.2-17.3-34-28.4-57.4-28.4c-39.9,0-72.3,32.3-72.3,72.2c0,10.2,2.1,19.9,5.9,28.7
		c-18.6,10.8-31.1,31.2-31.1,54.4c0,34.7,27.8,62.8,62.1,62.8c4.4,0,8.6-0.4,12.8-1.3c9.4,25.6,34,43.8,62.8,43.8
		c27.7,0,51.4-16.8,61.6-40.8c7.8,3.8,16.4,5.9,25.7,5.9c22,0,41.1-12.1,51.2-30.1c5.1,1,10.4,1.5,15.8,1.5
		c44.3,0,80.2-36.2,80.2-81C386.8,90.7,350.9,54.5,306.6,54.5z M94.3,148.7c0,6.6-4.7,10.6-12.4,10.6c-3.8,0-7.3-0.7-11.2-2.6
		l-2.1-1.3l-0.2-0.2l0.1-0.7l1.5-4.2c0.2-0.7,0.8-0.4,1-0.3l1.3,0.8c2.3,1.4,4.4,2.2,6.1,2.5l2.3,0.3h1.4c3.3,0,5.4-1.8,5.4-4.2
		v-0.1c0-2.6-3.2-3.6-6.9-4.7l-0.8-0.2c-5-1.4-10.4-3.5-10.4-9.8v-0.1c0-6,4.8-10.3,11.8-10.3h0.8c4,0,8.1,1.2,10.9,3
		c0.2,0.2,0.4,0.4,0.3,0.9l-1.5,4.2c-0.2,0.7-1,0.2-1,0.2c-2.5-1.4-6.5-2.5-9.7-2.5c-3.1,0-4.9,1.5-4.9,3.7v0.1c0,2.5,3.2,3.6,7,4.8
		l0.7,0.2c5,1.6,10.4,3.8,10.4,9.8V148.7z M125.5,157.3l-1.5,0.3l-5.5,1.1c-2.2,0.3-4.4,0.5-6.6,0.5c-2.1,0-3.9-0.1-5.7-0.5
		c-1.8-0.3-3.2-1-4.4-1.9c-1.2-0.9-2.2-2.1-2.8-3.4c-0.7-1.3-1-3.1-1-4.9s0.4-3.5,1.2-4.9c0.8-1.4,1.9-2.6,3.2-3.6
		c1.3-0.9,2.8-1.6,4.5-2.1l2.6-0.5l2.5-0.1l3.4,0.1l3.5,0.4v-0.9c0-2.8-0.5-4.3-1.8-5.1c-1.2-1-3.1-1.4-5.4-1.4c0,0-5.3-0.1-9.4,2.2
		l-0.3,0.2c0,0-0.4,0.2-0.7-0.3l-1.5-4.2c-0.2-0.7,0.2-0.9,0.2-0.9c2-1.5,6.7-2.4,6.7-2.4c1.5-0.3,4.2-0.5,5.8-0.5c4.4,0,7.7,1,10,3
		c2.2,2,3.4,5.1,3.4,9.5v19.7C125.9,156.6,126,157.1,125.5,157.3z M140,157.9c0,0.3-0.3,0.7-0.7,0.7h-5.7c-0.4,0-0.7-0.3-0.7-0.7
		v-46.1c0-0.3,0.3-0.7,0.7-0.7h5.7c0.4,0,0.7,0.3,0.7,0.7V157.9z M175.9,143.2c-0.1,0.5-0.7,0.5-0.7,0.5h-21.6
		c0.1,3.3,0.9,5.7,2.5,7.2c1.5,1.5,3.9,2.5,7.3,2.5c5.1,0,7.3-1.1,8.9-1.6c0,0,0.5-0.2,0.8,0.3l1.4,3.9c0.2,0.7,0,0.9-0.2,1
		c-1.3,0.8-4.6,2.2-10.8,2.2c-3.1,0-5.7-0.4-7.9-1.3c-2.2-0.9-4-2.1-5.5-3.6c-1.4-1.5-2.5-3.4-3.2-5.5c-0.7-2.1-1-4.4-1-6.9
		c0-2.4,0.3-4.8,1-6.9c0.7-2.1,1.6-4,3-5.6c1.3-1.6,3-2.8,4.9-3.8c0.4-0.3,1-0.4,1.5-0.7l1.8-0.4h4.2l3.3,0.3l2.8,0.9
		c1.3,0.5,2.6,1.5,4,3.1c0.9,0.9,2.2,3,2.7,5C176.7,138.8,175.9,143,175.9,143.2z M196.3,159.1l-2.7,0.2l-2.7-0.1
		c-2.7-0.3-5.5-1-8.3-2.5l-2.1-1.3l-0.2-0.2h0v-0.7l1.5-4.2c0.2-0.7,0.9-0.4,1-0.3l1.3,0.8c4.5,2.8,8.5,2.8,9.8,2.8
		c3.3,0,5.4-1.8,5.4-4.2v-0.1c0-2.6-3.2-3.6-6.9-4.7l-0.8-0.2c-5-1.4-10.4-3.5-10.4-9.8v-0.1c0-6,4.8-10.3,11.8-10.3h0.8
		c4,0,8.1,1.2,10.9,3c0.2,0.2,0.4,0.4,0.3,0.9l-1.5,4.2c-0.2,0.7-1,0.2-1,0.2c-2.5-1.4-6.5-2.5-9.7-2.5c-3.1,0-4.9,1.5-4.9,3.7v0.1
		c0,2.5,3.2,3.6,7,4.8l0.7,0.2c5,1.6,10.4,3.8,10.4,9.8v0.1C205.9,154.4,202.3,158.2,196.3,159.1z M231.2,130.1
		c-0.2,0.7-0.8,0.7-0.8,0.7h-7.1l-4.8,27.5c-0.4,2.8-1.1,5.3-1.9,7.2s-1.5,3.4-2.8,4.8c-1.1,1.2-2.4,2.2-3.9,2.7
		c-1.4,0.5-3.3,0.9-5.3,0.9c-1,0-2,0-3.2-0.3l-2-0.5c-0.2-0.1-0.4-0.4-0.3-0.9l1.6-4.4c0.2-0.5,0.8-0.3,0.8-0.3l1.2,0.4l1.8,0.2
		c0.9,0,1.8-0.1,2.5-0.3c0.9-0.3,1.4-0.9,2-1.5c0.5-0.8,1.1-1.8,1.5-3.1c0.5-1.4,1-3.2,1.3-5.4l4.8-27h-4.8c-0.5,0-0.7-0.2-0.7-0.7
		l0.8-4.5c0.2-0.7,0.8-0.7,0.8-0.7h4.9l0.2-1.4l0.4-3l1-2.6l1.2-2.3l1.5-1.9c2.1-2.2,5.1-3.3,9.1-3.3l3,0.2l2.2,0.5
		c0.2,0.1,0.7,0.3,0.4,0.8l-1.6,4.5c-0.2,0.3-0.3,0.5-1,0.3l-1.1-0.2l-1.8-0.2l-2.3,0.3c-0.8,0.2-1.3,0.5-1.9,1.1s-1.2,1.3-1.5,2.3
		c-0.8,2.2-1.1,4.7-1.1,4.8h6.9c0.5,0,0.7,0.2,0.7,0.7L231.2,130.1z M262.9,148.7c-0.5,2.2-1.5,4-2.8,5.6c-1.3,1.6-3,2.8-4.9,3.7
		c-1.9,0.9-4.3,1.3-6.8,1.3s-4.8-0.4-6.8-1.3s-3.6-2.2-4.9-3.7c-1.3-1.6-2.3-3.5-3-5.6c-0.7-2.2-1-4.5-1-6.9c0-2.5,0.3-4.8,1-6.9
		c0.5-2.2,1.5-4,2.8-5.6s3-2.8,4.9-3.7l3.2-1l3.6-0.3l3.7,0.3l3.2,1c2,0.9,3.6,2.2,4.9,3.7c1.2,1.6,2.2,3.5,2.8,5.6
		c0.7,2.2,1,4.5,1,6.9C263.9,144.3,263.6,146.6,262.9,148.7z M289.3,126.1l-1.6,4.5c-0.1,0.3-0.3,0.5-0.8,0.5c0,0-1.3-0.3-2.4-0.3
		c-0.8,0-1.9,0.1-2.8,0.4c-1,0.3-1.9,0.9-2.6,1.6c-0.8,0.8-1.4,1.9-1.9,3.2c-0.4,1.4-0.7,3.5-0.7,5.7v16.1c0,0.3-0.3,0.7-0.7,0.7
		h-5.7c-0.3,0-0.7-0.3-0.7-0.7v-32.2c0-0.3,0.3-0.7,0.7-0.7h5.6c0.4,0,0.7,0.3,0.7,0.7v2.6l1.6-1.5l1.8-1.1l2.3-0.8l1.4-0.2h1.9
		c1.4,0.1,3.3,0.5,3.6,0.7C289.1,125.3,289.4,125.6,289.3,126.1z M316.6,157.6c-2.4,1-5.7,1.6-9,1.6c-5.5,0-9.7-1.5-12.6-4.7
		c-2.8-3.2-4.3-7.4-4.3-12.7c0-2.5,0.3-4.8,1-6.9c0.7-2.2,1.8-4,3.1-5.6c1.4-1.5,3.1-2.8,5.1-3.7l3.3-1l3.8-0.5l4.8,0.3l2.4,0.5
		l1.9,0.5c0.2,0.1,0.7,0.3,0.4,0.8l-1.5,4.4c-0.2,0.7-0.8,0.4-0.8,0.4c-2.2-0.7-4.2-1-6.8-1c-3.2,0-5.6,1-7.1,3.1
		c-1.5,2.1-2.4,4.8-2.4,8.4c0,4,1,6.9,2.7,8.8c1.8,1.9,4.3,2.7,7.3,2.7l3.5-0.2l3-0.9c0,0,0.5-0.2,0.8,0.4l1.5,4.4
		C317.1,157.4,316.6,157.6,316.6,157.6z M348.1,143.8h-21.6c0.1,3.3,0.9,5.7,2.5,7.2c1.5,1.5,3.9,2.5,7.3,2.5c5.1,0,7.3-1.1,8.9-1.6
		c0,0,0.5-0.2,0.8,0.3l1.4,3.9c0.2,0.7,0,0.9-0.2,1c-1.3,0.8-4.6,2.2-10.8,2.2c-3.1,0-5.7-0.4-7.9-1.3c-2.1-0.9-3.9-2.1-5.4-3.6
		c-1.4-1.5-2.5-3.4-3.2-5.5c-0.7-2.1-1-4.4-1-6.9c0-2.4,0.3-4.8,1-6.9s1.6-4,3-5.6c1.3-1.6,3-2.8,4.9-3.8l1.5-0.7l1.8-0.4l3.8-0.3
		l3.3,0.3l2.8,0.9c1.3,0.5,2.6,1.5,4,3.1c0.9,0.9,2.2,3,2.7,5c0.3,1.2,0.5,2.4,0.7,3.5l0.1,3l0.1,3.2
		C348.7,143.8,348.1,143.8,348.1,143.8z"/>
</g>
</svg>
