<?xml version="1.0" encoding="utf-8"?>
<!-- Generator: Adobe Illustrator 26.2.1, SVG Export Plug-In . SVG Version: 6.00 Build 0)  -->
<svg version="1.1" id="logosvg.com_1_" xmlns="http://www.w3.org/2000/svg" xmlns:xlink="http://www.w3.org/1999/xlink" x="0px"
	 y="0px" viewBox="0 0 400 300" style="enable-background:new 0 0 400 300;" xml:space="preserve">
<style type="text/css">
	.st0{fill:#FFFFFF;}
</style>
<path id="logo" class="st0" d="M160,113L160,113L160,113L160,113z M160,113L160,113L160,113L160,113l-1.7-7.8h-22.7v91.9h26.2v-62.3
	c6.2-8.1,16.7-6.6,19.9-5.5v-24.2C178.5,104,166.2,101.7,160,113z M188.3,197.1h26.4v-91.9h-26.4V197.1z M36.6,131.9L36.6,131.9
	c0-4.1,3.4-5.7,8.9-5.7c8,0,18.1,2.4,26,6.7v-24.7c-8.7-3.5-17.3-4.8-26-4.8c-21.3,0-35.5,11.1-35.5,29.7c0,29,39.9,24.4,39.9,36.9
	c0,4.8-4.2,6.4-10.1,6.4c-8.7,0-19.8-3.6-28.7-8.4v25c9.8,4.2,19.6,6,28.7,6c21.8,0,36.9-10.8,36.9-29.6
	C76.6,138.1,36.6,143.6,36.6,131.9z M107.5,82.4l-25.6,5.5L81.8,172c0,15.5,11.7,27,27.2,27c8.6,0,14.9-1.6,18.4-3.5v-21.3
	c-3.4,1.4-19.9,6.2-19.9-9.3v-37.3h19.9v-22.4h-19.9L107.5,82.4z M305.3,150.5c0,33.3-17.1,48.4-35.9,48.4c-9.2,0-14.8-3.9-18.6-6.6
	l-0.1,29.7l-26.2,5.6V105.1h23.1l1.4,6.5c3.7-3.4,10.3-8.2,20.6-8.2C287.8,103.4,305.2,120,305.3,150.5z M279.3,151.2
	c0-13.8-6.6-24.5-16.2-24.5c-6,0-9.8,2.1-12.5,5.1l0.1,39c2.5,2.7,6.2,4.9,12.4,4.9C272.8,175.8,279.3,165.3,279.3,151.2z
	 M387.8,160.9h-51.3c1.2,12.4,10.2,16,20.4,16c10.4,0,18.6-2.2,25.7-5.8v21c-7.1,4-16.6,6.8-29.1,6.8c-25.6,0-43.5-16-43.5-47.6
	c0-26.7,15.1-47.9,40.1-47.9c24.9,0,37.9,21.2,37.9,48.1C388,154,387.8,159.5,387.8,160.9z M363.2,141.6c0-11.9-6.8-16.8-13.2-16.8
	c-6.6,0-13.9,4.9-13.9,16.8H363.2z M188.3,97.2l26.4-5.7V70.3l-26.4,5.6V97.2z"/>
</svg>
